<svg width="52" height="48" viewBox="0 0 52 48" fill="none" xmlns="http://www.w3.org/2000/svg">
<g clip-path="url(#clip0_44_9)">
<g filter="url(#filter0_d_44_9)">
<path d="M14.7502 21.5C14.4502 21.5 14.1877 21.6125 14.0127 21.8125C13.8377 22 13.7627 22.275 13.8002 22.575L14.4252 26.3125C14.5252 27.125 15.2502 27.75 16.0002 27.75H19.7502C20.5502 27.75 21.4502 27.05 21.6252 26.275L22.9502 22.2875C23.0002 22.125 22.9627 21.8875 22.8752 21.7375C22.7377 21.5875 22.5252 21.5 22.2502 21.5H14.7502ZM19.7502 30.25H16.0002C13.9752 30.25 12.2002 28.675 11.9502 26.675L11.3252 22.9375C11.1877 21.875 11.4877 20.875 12.1377 20.15C12.7877 19.425 13.7377 19 14.7502 19H22.2502C23.2877 19 24.2252 19.4375 24.8252 20.2C24.9627 20.3875 25.0877 20.5875 25.1877 20.8125C25.7252 20.7 26.2752 20.7 26.8002 20.8125C26.9002 20.5875 27.0252 20.3875 27.1752 20.2C27.7627 19.4375 28.7002 19 29.7502 19H37.2502C38.2627 19 39.2127 19.425 39.8627 20.15C40.5002 20.875 40.8002 21.875 40.6752 22.8875L40.0377 26.725C39.8002 28.675 38.0127 30.25 36.0002 30.25H32.2502C30.3002 30.25 28.4002 28.7625 27.9252 26.875L26.8002 23.4875C26.3252 23.1375 25.6627 23.1375 25.1877 23.4875L24.0377 26.9625C23.5877 28.775 21.7002 30.25 19.7502 30.25ZM29.7502 21.5C29.4752 21.5 29.2627 21.5875 29.1252 21.7375C29.0252 21.8875 29.0002 22.125 29.0627 22.375L30.3252 26.1875C30.5502 27.05 31.4502 27.75 32.2502 27.75H36.0002C36.7377 27.75 37.4752 27.125 37.5627 26.3625L38.2002 22.525C38.2377 22.275 38.1627 22 37.9877 21.8125C37.8945 21.7104 37.7803 21.6297 37.653 21.5758C37.5258 21.5218 37.3884 21.496 37.2502 21.5H29.7502Z" fill="black"/>
</g>
<g filter="url(#filter1_d_44_9)">
<path d="M23 24.2C23.5304 24.2 24.0391 24.4107 24.4142 24.7858C24.7893 25.1609 25 25.6696 25 26.2C25 26.57 24.89 26.91 24.72 27.2C24.72 27.2 24 27 23 27C22 27 21.28 27.2 21.28 27.2C21.11 26.91 21 26.57 21 26.2C21 25.6696 21.2107 25.1609 21.5858 24.7858C21.9609 24.4107 22.4696 24.2 23 24.2ZM29 24.2C30.11 24.2 31 25.09 31 26.2C31 26.57 30.89 26.91 30.72 27.2C30.72 27.2 30 27 29 27C28 27 27.28 27.2 27.28 27.2C27.11 26.91 27 26.57 27 26.2C27 25.09 27.89 24.2 29 24.2ZM26 37.9C27.8139 37.9014 29.5827 37.3352 31.0586 36.2808C32.5345 35.2263 33.6435 33.7364 34.23 32.02L32.91 31.5599C31.9 34.5199 29.12 36.5 26 36.5C22.88 36.5 20.1 34.5199 19.09 31.5599L17.77 32.02C18.3565 33.7364 19.4655 35.2263 20.9414 36.2808C22.4173 37.3352 24.1861 37.9014 26 37.9Z" fill="black"/>
</g>
<g filter="url(#filter2_d_44_9)">
<path d="M1.47705 26.7841V25.0227C3.05849 25.0227 4.16171 24.6913 4.78671 24.0284C5.42118 23.3655 5.73842 22.2576 5.73842 20.7045V16.1591C5.73842 14.8523 5.86152 13.7206 6.10773 12.7642C6.36342 11.8078 6.77535 11.017 7.34353 10.392C7.91171 9.76701 8.66929 9.30299 9.61626 8.99996C10.5632 8.69693 11.7328 8.54541 13.1248 8.54541V11.3295C12.0263 11.3295 11.1598 11.5 10.5254 11.8409C9.90035 12.1818 9.45527 12.7121 9.19012 13.4318C8.93444 14.142 8.8066 15.0511 8.8066 16.1591V21.8409C8.8066 22.5795 8.70717 23.2519 8.5083 23.858C8.31891 24.464 7.9638 24.9848 7.44296 25.4205C6.92213 25.8561 6.17876 26.1922 5.21285 26.429C4.25641 26.6657 3.01114 26.7841 1.47705 26.7841ZM13.1248 44.9091C11.7328 44.9091 10.5632 44.7576 9.61626 44.4545C8.66929 44.1515 7.91171 43.6875 7.34353 43.0625C6.77535 42.4375 6.36342 41.6468 6.10773 40.6903C5.86152 39.7339 5.73842 38.6023 5.73842 37.2955V32.75C5.73842 31.197 5.42118 30.089 4.78671 29.4261C4.16171 28.7633 3.05849 28.4318 1.47705 28.4318V26.6705C3.01114 26.6705 4.25641 26.7888 5.21285 27.0256C6.17876 27.2623 6.92213 27.5985 7.44296 28.0341C7.9638 28.4697 8.31891 28.9905 8.5083 29.5966C8.70717 30.2027 8.8066 30.875 8.8066 31.6136V37.2955C8.8066 38.4034 8.93444 39.3125 9.19012 40.0227C9.45527 40.733 9.90035 41.2585 10.5254 41.5994C11.1598 41.9498 12.0263 42.125 13.1248 42.125V44.9091ZM1.47705 28.4318V25.0227H4.82933V28.4318H1.47705ZM50.0034 26.6705V28.4318C48.4219 28.4318 47.314 28.7633 46.6795 29.4261C46.0545 30.089 45.742 31.197 45.742 32.75V37.2955C45.742 38.6023 45.6141 39.7339 45.3585 40.6903C45.1123 41.6468 44.7051 42.4375 44.1369 43.0625C43.5687 43.6875 42.8111 44.1515 41.8641 44.4545C40.9172 44.7576 39.7477 44.9091 38.3556 44.9091V42.125C39.4541 42.125 40.3159 41.9498 40.9409 41.5994C41.5753 41.2585 42.0204 40.733 42.2761 40.0227C42.5412 39.3125 42.6738 38.4034 42.6738 37.2955V31.6136C42.6738 30.875 42.7685 30.2027 42.9579 29.5966C43.1568 28.9905 43.5166 28.4697 44.0374 28.0341C44.5583 27.5985 45.2969 27.2623 46.2534 27.0256C47.2193 26.7888 48.4693 26.6705 50.0034 26.6705ZM38.3556 8.54541C39.7477 8.54541 40.9172 8.69693 41.8641 8.99996C42.8111 9.30299 43.5687 9.76701 44.1369 10.392C44.7051 11.017 45.1123 11.8078 45.3585 12.7642C45.6141 13.7206 45.742 14.8523 45.742 16.1591V20.7045C45.742 22.2576 46.0545 23.3655 46.6795 24.0284C47.314 24.6913 48.4219 25.0227 50.0034 25.0227V26.7841C48.4693 26.7841 47.2193 26.6657 46.2534 26.429C45.2969 26.1922 44.5583 25.8561 44.0374 25.4205C43.5166 24.9848 43.1568 24.464 42.9579 23.858C42.7685 23.2519 42.6738 22.5795 42.6738 21.8409V16.1591C42.6738 15.0511 42.5412 14.142 42.2761 13.4318C42.0204 12.7121 41.5753 12.1818 40.9409 11.8409C40.3159 11.5 39.4541 11.3295 38.3556 11.3295V8.54541ZM50.0034 25.0227V28.4318H46.6511V25.0227H50.0034Z" fill="black"/>
</g>
</g>
<defs>
<filter id="filter0_d_44_9" x="9.29248" y="17" width="33.4106" height="15.25" filterUnits="userSpaceOnUse" color-interpolation-filters="sRGB">
<feFlood flood-opacity="0" result="BackgroundImageFix"/>
<feColorMatrix in="SourceAlpha" type="matrix" values="0 0 0 0 0 0 0 0 0 0 0 0 0 0 0 0 0 0 127 0" result="hardAlpha"/>
<feOffset/>
<feGaussianBlur stdDeviation="1"/>
<feComposite in2="hardAlpha" operator="out"/>
<feColorMatrix type="matrix" values="0 0 0 0 1 0 0 0 0 1 0 0 0 0 1 0 0 0 1 0"/>
<feBlend mode="normal" in2="BackgroundImageFix" result="effect1_dropShadow_44_9"/>
<feBlend mode="normal" in="SourceGraphic" in2="effect1_dropShadow_44_9" result="shape"/>
</filter>
<filter id="filter1_d_44_9" x="15.77" y="22.2" width="20.46" height="17.7" filterUnits="userSpaceOnUse" color-interpolation-filters="sRGB">
<feFlood flood-opacity="0" result="BackgroundImageFix"/>
<feColorMatrix in="SourceAlpha" type="matrix" values="0 0 0 0 0 0 0 0 0 0 0 0 0 0 0 0 0 0 127 0" result="hardAlpha"/>
<feOffset/>
<feGaussianBlur stdDeviation="1"/>
<feComposite in2="hardAlpha" operator="out"/>
<feColorMatrix type="matrix" values="0 0 0 0 1 0 0 0 0 1 0 0 0 0 1 0 0 0 1 0"/>
<feBlend mode="normal" in2="BackgroundImageFix" result="effect1_dropShadow_44_9"/>
<feBlend mode="normal" in="SourceGraphic" in2="effect1_dropShadow_44_9" result="shape"/>
</filter>
<filter id="filter2_d_44_9" x="-0.522949" y="6.54541" width="52.5264" height="40.3636" filterUnits="userSpaceOnUse" color-interpolation-filters="sRGB">
<feFlood flood-opacity="0" result="BackgroundImageFix"/>
<feColorMatrix in="SourceAlpha" type="matrix" values="0 0 0 0 0 0 0 0 0 0 0 0 0 0 0 0 0 0 127 0" result="hardAlpha"/>
<feOffset/>
<feGaussianBlur stdDeviation="1"/>
<feComposite in2="hardAlpha" operator="out"/>
<feColorMatrix type="matrix" values="0 0 0 0 1 0 0 0 0 1 0 0 0 0 1 0 0 0 1 0"/>
<feBlend mode="normal" in2="BackgroundImageFix" result="effect1_dropShadow_44_9"/>
<feBlend mode="normal" in="SourceGraphic" in2="effect1_dropShadow_44_9" result="shape"/>
</filter>
<clipPath id="clip0_44_9">
<rect width="52" height="48" fill="white"/>
</clipPath>
</defs>
</svg>
